<svg width="60" height="41" viewBox="0 0 60 41" fill="none" xmlns="http://www.w3.org/2000/svg">
<circle cx="8.3111" cy="8.3111" r="8.3111" transform="matrix(-0.876702 -0.481034 -0.481034 0.876702 22.5684 17.9365)" fill="#9FCCEF"/>
<path d="M41.4281 20.7149C43.6361 16.6907 48.6883 15.2185 52.7124 17.4264C56.7366 19.6344 58.2088 24.6866 56.0008 28.7107C53.7929 32.7349 48.7407 34.2071 44.7166 31.9992C40.6924 29.7912 39.2201 24.739 41.4281 20.7149Z" fill="#9FCCEF"/>
<circle cx="37.7057" cy="22.6219" r="13.4474" transform="rotate(-151.247 37.7057 22.6219)" fill="#9FCCEF"/>
<circle cx="13.4474" cy="13.4474" r="13.4474" transform="matrix(0.876702 0.481034 0.481034 -0.876702 5.01562 23.5791)" fill="#9FCCEF"/>
<path d="M44.7067 14.7133L45.1569 14.9604C47.1979 16.0803 48.3547 18.3272 48.0806 20.6391V20.6391" stroke="white" stroke-width="2"/>
</svg>
