<svg width="52" height="52" viewBox="0 0 52 52" fill="none" xmlns="http://www.w3.org/2000/svg">
<rect width="52" height="52" rx="2" fill="#C4C4C4"/>
<path d="M19.8738 34C19.7138 34 19.5778 33.944 19.4658 33.832C19.3538 33.72 19.2978 33.584 19.2978 33.424V17.8C19.2978 17.624 19.3538 17.48 19.4658 17.368C19.5778 17.256 19.7138 17.2 19.8738 17.2H26.0898C28.0258 17.2 29.5538 17.648 30.6738 18.544C31.7938 19.44 32.3538 20.744 32.3538 22.456C32.3538 23.64 32.0578 24.624 31.4658 25.408C30.8898 26.192 30.1138 26.76 29.1378 27.112L32.6418 33.232C32.6898 33.328 32.7138 33.416 32.7138 33.496C32.7138 33.64 32.6578 33.76 32.5458 33.856C32.4498 33.952 32.3378 34 32.2098 34H30.0258C29.7538 34 29.5458 33.928 29.4018 33.784C29.2578 33.64 29.1458 33.496 29.0658 33.352L25.9698 27.664H22.6338V33.424C22.6338 33.584 22.5778 33.72 22.4658 33.832C22.3698 33.944 22.2338 34 22.0578 34H19.8738ZM22.6338 24.952H26.0178C26.9938 24.952 27.7218 24.736 28.2018 24.304C28.6818 23.856 28.9218 23.232 28.9218 22.432C28.9218 21.632 28.6818 21.008 28.2018 20.56C27.7378 20.096 27.0098 19.864 26.0178 19.864H22.6338V24.952Z" fill="white"/>
</svg>
