<svg width="40" height="40" viewBox="0 0 40 40" fill="none" xmlns="http://www.w3.org/2000/svg">
<circle cx="20" cy="20" r="19.5" fill="white" stroke="black"/>
<path d="M18.9506 32.2222C18.0301 32.2222 17.2839 31.476 17.2839 30.5556C17.2839 29.6351 18.0301 28.8889 18.9506 28.8889H21.0494C21.9698 28.8889 22.716 29.6351 22.716 30.5556C22.716 31.476 21.9698 32.2222 21.0494 32.2222H18.9506ZM13.5185 23.8889C12.598 23.8889 11.8518 23.1427 11.8518 22.2222C11.8518 21.3017 12.598 20.5556 13.5185 20.5556H26.4815C27.4019 20.5556 28.1481 21.3017 28.1481 22.2222C28.1481 23.1427 27.4019 23.8889 26.4815 23.8889H13.5185ZM9.44444 15.5556C8.52396 15.5556 7.77777 14.8094 7.77777 13.8889C7.77777 12.9684 8.52396 12.2222 9.44444 12.2222H30.5555C31.476 12.2222 32.2222 12.9684 32.2222 13.8889C32.2222 14.8094 31.476 15.5556 30.5555 15.5556H9.44444Z" fill="#49B0AB" stroke="black" stroke-width="0.5"/>
</svg>
