<svg width="36" height="36" viewBox="0 0 36 36" fill="none" xmlns="http://www.w3.org/2000/svg">
<circle cx="18" cy="18" r="18" fill="white"/>
<path d="M27.5861 17.8361L18.499 8.21903C18.4336 8.1496 18.3559 8.09451 18.2703 8.05693C18.1847 8.01935 18.093 8 18.0004 8C17.9078 8 17.8161 8.01935 17.7305 8.05693C17.645 8.09451 17.5673 8.1496 17.5018 8.21903L8.41475 17.8361C8.15002 18.1165 8 18.4974 8 18.8946C8 19.7194 8.63316 20.39 9.41193 20.39H10.3694V27.2523C10.3694 27.6659 10.6849 28 11.0754 28H16.5885V22.7662H19.0594V28H24.9255C25.316 28 25.6314 27.6659 25.6314 27.2523V20.39H26.5889C26.9639 20.39 27.3235 20.2334 27.5883 19.9507C28.1376 19.3666 28.1376 18.4203 27.5861 17.8361Z" fill="#49B0AB" stroke="#253646" stroke-width="0.5"/>
</svg>
