<svg width="29" height="42" viewBox="0 0 29 42" fill="none" xmlns="http://www.w3.org/2000/svg">
<path d="M27.7887 2.52189C28.2895 2.13597 28.1658 1.35559 27.5584 1.18014C24.8755 0.405271 22.059 0.176885 19.277 0.51442C16.012 0.910548 12.8874 2.07483 10.1594 3.91181C7.43132 5.74879 5.17747 8.20617 3.5826 11.0825C1.98773 13.9588 1.09725 17.1722 0.98417 20.4591C0.871091 23.746 1.53863 27.013 2.93206 29.9921C4.32549 32.9712 6.40513 35.5777 9.00049 37.5978C11.5959 39.6179 14.633 40.9942 17.863 41.6138C20.6073 42.1402 23.4243 42.1076 26.1466 41.5239C26.7569 41.3931 26.9154 40.6244 26.4294 40.2327C14.5743 30.6765 14.7734 12.5497 26.8355 3.25624L27.7887 2.52189Z" fill="#F2CC6F"/>
<path d="M27.7887 2.52189C28.2895 2.13597 28.1658 1.35559 27.5584 1.18014C24.8755 0.405271 22.059 0.176885 19.277 0.51442C16.012 0.910548 12.8874 2.07483 10.1594 3.91181C7.43132 5.74879 5.17747 8.20617 3.5826 11.0825C1.98773 13.9588 1.09725 17.1722 0.98417 20.4591C0.871091 23.746 1.53863 27.013 2.93206 29.9921C4.32549 32.9712 6.40513 35.5777 9.00049 37.5978C11.5959 39.6179 14.633 40.9942 17.863 41.6138C20.6073 42.1402 23.4243 42.1076 26.1466 41.5239C26.7569 41.3931 26.9154 40.6244 26.4294 40.2327C14.5743 30.6765 14.7734 12.5497 26.8355 3.25624L27.7887 2.52189Z" fill="#F2CC6F"/>
<path d="M27.7887 2.52189C28.2895 2.13597 28.1658 1.35559 27.5584 1.18014C24.8755 0.405271 22.059 0.176885 19.277 0.51442C16.012 0.910548 12.8874 2.07483 10.1594 3.91181C7.43132 5.74879 5.17747 8.20617 3.5826 11.0825C1.98773 13.9588 1.09725 17.1722 0.98417 20.4591C0.871091 23.746 1.53863 27.013 2.93206 29.9921C4.32549 32.9712 6.40513 35.5777 9.00049 37.5978C11.5959 39.6179 14.633 40.9942 17.863 41.6138C20.6073 42.1402 23.4243 42.1076 26.1466 41.5239C26.7569 41.3931 26.9154 40.6244 26.4294 40.2327C14.5743 30.6765 14.7734 12.5497 26.8355 3.25624L27.7887 2.52189Z" fill="#F7E5B9"/>
</svg>
