<svg width="36" height="36" viewBox="0 0 36 36" fill="none" xmlns="http://www.w3.org/2000/svg">
<circle cx="18" cy="18" r="17.5" fill="white" stroke="black"/>
<path d="M19.8764 28.25H19.8762H16.1245C16.1245 28.25 16.1245 28.25 16.1245 28.25C15.8344 28.25 15.552 28.1539 15.3244 27.9762C15.0966 27.7984 14.9369 27.5492 14.8736 27.2691L14.8734 27.2683L14.4816 25.5086C13.987 25.2895 13.5151 25.0248 13.0724 24.7181L11.2964 25.2668C11.0194 25.3525 10.7206 25.3438 10.4493 25.2418C10.178 25.1399 9.94905 24.9504 9.80188 24.7031L19.8764 28.25ZM19.8764 28.25C20.1663 28.2498 20.4483 28.1535 20.6757 27.9758C20.9032 27.7981 21.0627 27.5491 21.126 27.2692L19.8764 28.25ZM11.2923 10.7312C11.0152 10.6455 10.7165 10.6542 10.4452 10.7562C10.1737 10.8581 9.94473 11.0477 9.79757 11.2952L7.92174 14.4482L7.92174 14.4482L7.92117 14.4491C7.77528 14.6969 7.72007 14.9862 7.76549 15.2694C7.81091 15.5525 7.95389 15.8108 8.16919 16.0027L8.17003 16.0034L9.54213 17.2151C9.49149 17.7366 9.4915 18.2616 9.54215 18.7831L8.16982 19.9978L8.1691 19.9984C7.9541 20.1902 7.81131 20.4483 7.7659 20.7311C7.72048 21.014 7.77551 21.3031 7.92107 21.5507L7.92107 21.5507L7.9219 21.5521L9.80169 24.7028L11.2184 10.97M11.2923 10.7312L11.2184 10.97M11.2923 10.7312L11.2922 10.7311L11.2184 10.97M11.2923 10.7312L13.0681 11.2798M11.2184 10.97L13.1117 11.555M13.0681 11.2798C13.0339 11.3036 13 11.3275 12.9662 11.3517L13.1117 11.555M13.0681 11.2798L13.1855 11.3161L13.1117 11.555M13.0681 11.2798L13.1117 11.555M24.7095 10.7331L24.7096 10.7331C24.9865 10.6477 25.2849 10.6566 25.556 10.7586C25.8271 10.8605 26.0559 11.0499 26.203 11.2972L26.203 11.2972L28.0789 14.4502L28.0796 14.4514C28.3798 14.9624 28.275 15.6082 27.8315 16.0036L27.8308 16.0042L26.4585 17.2189C26.5091 17.7405 26.5091 18.2655 26.4585 18.7871L27.8308 20.0018L27.8318 20.0026C28.2748 20.3988 28.3799 21.0434 28.0796 21.5546L28.0789 21.5558L26.2031 24.7088C26.0559 24.9563 25.8269 25.1459 25.5555 25.2478C25.2841 25.3498 24.9854 25.3585 24.7084 25.2728L22.9324 24.7241C22.4899 25.0307 22.0181 25.2952 21.5236 25.5139L21.126 27.2691L24.7095 10.7331ZM24.7095 10.7331L22.932 11.282C22.4887 10.9763 22.0169 10.7116 21.5228 10.4916L21.1261 8.73219M24.7095 10.7331L21.1261 8.73219M21.1261 8.73219L21.126 8.732L21.1261 8.73219ZM14.4819 10.4896L14.454 10.6145L14.698 10.669L14.6013 10.4385C14.5614 10.4552 14.5216 10.4722 14.4819 10.4896ZM15.255 15.351C15.9808 14.6469 16.9667 14.25 17.9962 14.25C19.0257 14.25 20.0116 14.6469 20.7373 15.351C21.4628 16.0549 21.869 17.0079 21.869 18C21.869 18.9921 21.4628 19.9451 20.7373 20.649C20.0116 21.3531 19.0257 21.75 17.9962 21.75C16.9667 21.75 15.9808 21.3531 15.255 20.649C14.5296 19.9451 14.1234 18.9921 14.1234 18C14.1234 17.0079 14.5296 16.0549 15.255 15.351Z" fill="#D95182" stroke="black" stroke-width="0.5"/>
</svg>
